<svg xmlns="http://www.w3.org/2000/svg" width="305" height="11" viewBox="0 0 305 11">
  <path d="M244.489,249.591H142.035a.487.487,0,1,1,0-.973H244.489a.486.486,0,1,1,0,.973Zm-109.8-.486a.492.492,0,0,0-.5-.487H113.83a.486.486,0,1,0,0,.973h20.362A.492.492,0,0,0,134.691,249.1Zm-28.749,0a.492.492,0,0,0-.5-.487h-3.588a.486.486,0,1,0,0,.973h3.588A.492.492,0,0,0,105.942,249.1Zm260.236,0a.492.492,0,0,0-.5-.487H263.225a.486.486,0,1,0,0,.973H365.68A.492.492,0,0,0,366.178,249.1Zm28.2,0a.492.492,0,0,0-.5-.487H373.522a.486.486,0,1,0,0,.973h20.362A.492.492,0,0,0,394.383,249.1Zm11.974,0a.492.492,0,0,0-.5-.487h-3.588a.486.486,0,1,0,0,.973h3.588A.492.492,0,0,0,406.357,249.1Zm-146.7.9-5.639-5.5-5.638,5.5,5.638,5.5Zm-5.639-4.125,4.229,4.125-4.229,4.125-4.229-4.125Z" transform="translate(-101.357 -244.51)" fill="#ab9274"/>
</svg>
