<svg xmlns="http://www.w3.org/2000/svg" width="959" height="21" viewBox="0 0 959 21">
  <path d="M252.062,244.4H-70.8a.5.5,0,0,1-.5-.495.5.5,0,0,1,.5-.495H252.062a.495.495,0,1,1,0,.99ZM-95.013,243.9a.5.5,0,0,0-.5-.495h-64.168a.5.5,0,0,0-.5.495.5.5,0,0,0,.5.495h64.168A.5.5,0,0,0-95.013,243.9Zm-90.6,0a.5.5,0,0,0-.5-.495h-11.309a.5.5,0,0,0-.5.495.5.5,0,0,0,.5.495h11.309A.5.5,0,0,0-185.608,243.9Zm820.073,0a.5.5,0,0,0-.5-.495H311.1a.495.495,0,1,0,0,.99H633.965A.5.5,0,0,0,634.465,243.9Zm88.882,0a.5.5,0,0,0-.5-.495H658.679a.495.495,0,1,0,0,.99h64.168A.5.5,0,0,0,723.347,243.9Zm37.736,0a.5.5,0,0,0-.5-.495H749.275a.495.495,0,1,0,0,.99h11.308A.5.5,0,0,0,761.083,243.9Zm-469.285.6L281.191,234l-10.606,10.5L281.191,255Zm-10.607-9.1,9.193,9.1-9.193,9.1L272,244.5Z" transform="translate(197.917 -234.003)" fill="#ab9274"/>
</svg>
