<svg xmlns="http://www.w3.org/2000/svg" width="50" height="27" viewBox="0 0 50 27">
  <path d="M132.893,106.469c-.145.137-14.376,13.747-20.723,16.473-4.048,1.485-7.676,1.73-9.952.67A3.7,3.7,0,0,1,100.2,121.6a3.579,3.579,0,0,1,.545-2.895,6.9,6.9,0,0,1,4.871-2.434c4.147-.55,10.569,1.367,10.633,1.387l.371-1.227c-.274-.083-6.745-2.023-11.174-1.43a8.123,8.123,0,0,0-5.751,2.971,4.855,4.855,0,0,0-.723,3.986,5,5,0,0,0,2.709,2.818,9.374,9.374,0,0,0,3.966.775,20.738,20.738,0,0,0,7-1.416c6.593-2.829,20.546-16.172,21.136-16.739Z" transform="translate(-98.824 -106.469)" fill="#404040"/>
  <path d="M111.2,128.167l.339,1.238c.345-.094,8.47-2.364,13.2-7.443l-.939-.875C119.319,125.9,111.277,128.145,111.2,128.167Z" transform="translate(-95.686 -102.405)" fill="#404040"/>
  <path d="M137.284,115.046v-.009c-.038,0-.077,0-.114,0s-.083-.012-.13-.014v.01c-4.726-.248-10.04,3.017-10.269,3.159l.676,1.089c.053-.032,5.316-3.266,9.661-2.964,4.009.227,5.806,1.992,5.8,3.661s-1.789,3.43-5.179,3.561c-7.221.258-18.735-6.741-18.851-6.813l-.67,1.094c.476.291,11.531,7.01,19.1,7.01.156,0,.313,0,.468-.009,4.2-.162,6.4-2.555,6.412-4.835C144.2,117.72,142.054,115.351,137.284,115.046Z" transform="translate(-94.188 -104.096)" fill="#404040"/>
</svg>
